<?xml version="1.0" encoding="utf-8"?>
<!-- Generator: Adobe Illustrator 23.0.0, SVG Export Plug-In . SVG Version: 6.00 Build 0)  -->
<svg version="1.1" id="레이어_1" xmlns="http://www.w3.org/2000/svg" xmlns:xlink="http://www.w3.org/1999/xlink" x="0px"
	 y="0px" viewBox="0 0 99.98 112.42" style="enable-background:new 0 0 99.98 112.42;" xml:space="preserve">
<style type="text/css">
	.st0{fill:#FFFFFF;}
	.st1{fill:#6C3F18;}
	.st2{fill:#472B12;}
</style>
<g>
	<g>
		<path class="st0" d="M50.75,6.55c0,0-15.35,15.18-43.16,16.01c0,0-5.71,57.57,43.14,84.92c0,0,46.86-21.57,42.97-85.03
			C93.7,22.45,71.78,23.69,50.75,6.55z"/>
		<path class="st1" d="M50.48,11.33c0,0-13.83,13.68-38.88,14.42c0,0-5.15,51.86,38.86,76.51c0,0,42.21-19.43,38.71-76.61
			C89.17,25.65,69.42,26.77,50.48,11.33z"/>
		<path class="st2" d="M89.17,25.65L25.04,78.82c0,0,8.68,14.17,25.14,23.46C50.17,102.28,91.91,83.54,89.17,25.65z"/>
		<path class="st1" d="M92.09,23.57c3.78,61.65-41.74,82.61-41.74,82.61C2.9,79.6,8.45,23.68,8.45,23.68
			c27.01-0.8,41.92-15.55,41.92-15.55C70.79,24.77,92.09,23.57,92.09,23.57z M50.59,2.63c0,0-16.53,16.35-46.48,17.24
			c0,0-6.15,62,46.46,91.46c0,0,50.47-23.23,46.28-91.58C96.85,19.75,73.23,21.08,50.59,2.63z"/>
	</g>
	<g>
		<path class="st0" d="M62.98,59.88c0,9.33-3.92,14-11.75,14c-3.93,0-6.88-1.09-8.85-3.28c-1.97-2.18-2.95-5.51-2.95-9.97
			c0-2.07,0.23-4.13,0.7-6.17c0.47-2.05,1.2-4.23,2.2-6.53l5.25-12.05h10.5l-5,11.8C59.68,47.68,62.98,51.75,62.98,59.88z
			 M49.18,60.43c0,1.93,0.17,3.3,0.5,4.1c0.33,0.9,0.83,1.35,1.5,1.35c0.7,0,1.22-0.45,1.55-1.35c0.33-0.8,0.5-2.17,0.5-4.1
			c0-1.87-0.17-3.2-0.5-4c-0.33-0.83-0.85-1.25-1.55-1.25c-0.67,0-1.17,0.42-1.5,1.25C49.34,57.23,49.18,58.57,49.18,60.43z"/>
	</g>
</g>
</svg>
