<?xml version="1.0" encoding="utf-8"?>
<!-- Generator: Adobe Illustrator 23.0.0, SVG Export Plug-In . SVG Version: 6.00 Build 0)  -->
<svg version="1.1" id="레이어_1" xmlns="http://www.w3.org/2000/svg" xmlns:xlink="http://www.w3.org/1999/xlink" x="0px"
	 y="0px" viewBox="0 0 99.98 112.42" style="enable-background:new 0 0 99.98 112.42;" xml:space="preserve">
<style type="text/css">
	.st0{fill:#FFFFFF;}
	.st1{fill:url(#SVGID_1_);}
	.st2{fill:url(#SVGID_2_);}
	.st3{fill:url(#SVGID_3_);}
	.st4{fill:url(#SVGID_4_);}
	.st5{fill:url(#SVGID_5_);}
	.st6{fill:url(#SVGID_6_);}
	.st7{fill:url(#SVGID_7_);}
	.st8{fill:url(#SVGID_8_);}
	.st9{fill:url(#SVGID_9_);}
	.st10{fill:url(#SVGID_10_);}
	.st11{fill:url(#SVGID_11_);}
	.st12{fill:url(#SVGID_12_);}
	.st13{fill:#FEEAA0;}
</style>
<g>
	<g>
		<path class="st0" d="M49.72,5.78c0,0-15.28,15.11-42.96,15.93c0,0-5.69,57.31,42.94,84.54c0,0,46.65-21.47,42.77-84.65
			C92.47,21.6,70.64,22.84,49.72,5.78z"/>
		<linearGradient id="SVGID_1_" gradientUnits="userSpaceOnUse" x1="10.7711" y1="56.1811" x2="89.0175" y2="56.1811">
			<stop  offset="5.618000e-03" style="stop-color:#EBC17D"/>
			<stop  offset="0.1775" style="stop-color:#EDCF89"/>
			<stop  offset="0.1854" style="stop-color:#EDD089"/>
			<stop  offset="0.4101" style="stop-color:#F4E8D9"/>
			<stop  offset="0.7303" style="stop-color:#C08329"/>
			<stop  offset="0.8912" style="stop-color:#DCAC68"/>
			<stop  offset="0.9494" style="stop-color:#EABE81"/>
		</linearGradient>
		<path class="st1" d="M49.98,10.55c0,0-13.88,13.73-39.02,14.47c0,0-5.16,52.05,39,76.78c0,0,42.37-19.5,38.85-76.89
			C88.81,24.92,68.99,26.05,49.98,10.55z"/>
		<linearGradient id="SVGID_2_" gradientUnits="userSpaceOnUse" x1="3.2152" y1="56.3637" x2="96.7603" y2="56.3637">
			<stop  offset="5.618000e-03" style="stop-color:#EBC17D"/>
			<stop  offset="0.1775" style="stop-color:#EDCF89"/>
			<stop  offset="0.1854" style="stop-color:#EDD089"/>
			<stop  offset="0.4101" style="stop-color:#F4E8D9"/>
			<stop  offset="0.7303" style="stop-color:#C08329"/>
			<stop  offset="0.8912" style="stop-color:#DCAC68"/>
			<stop  offset="0.9494" style="stop-color:#EABE81"/>
		</linearGradient>
		<path class="st2" d="M91.74,22.83c3.79,61.88-41.89,82.91-41.89,82.91C2.22,79.07,7.79,22.94,7.79,22.94
			C34.9,22.13,49.87,7.33,49.87,7.33C70.37,24.04,91.74,22.83,91.74,22.83z M50.09,1.81c0,0-16.59,16.41-46.65,17.3
			c0,0-6.17,62.23,46.63,91.8c0,0,50.65-23.31,46.45-91.92C96.51,19,72.81,20.34,50.09,1.81z"/>
	</g>
	<g>
		<g>
			<linearGradient id="SVGID_3_" gradientUnits="userSpaceOnUse" x1="43.6594" y1="44.1528" x2="55.7374" y2="36.6056">
				<stop  offset="0" style="stop-color:#DDA027"/>
				<stop  offset="0.2727" style="stop-color:#FFC907"/>
				<stop  offset="0.4909" style="stop-color:#FFF0B6"/>
				<stop  offset="1" style="stop-color:#FEE27F"/>
			</linearGradient>
			<polygon class="st3" points="49.99,52.99 44.24,45.09 49.99,27.4 			"/>
			<linearGradient id="SVGID_4_" gradientUnits="userSpaceOnUse" x1="44.2374" y1="36.6056" x2="56.3159" y2="44.1531">
				<stop  offset="0" style="stop-color:#DDA027"/>
				<stop  offset="0.5394" style="stop-color:#FFC907"/>
				<stop  offset="1" style="stop-color:#FEE27F"/>
			</linearGradient>
			<polygon class="st4" points="49.99,52.99 55.73,45.09 49.99,27.4 			"/>
			<linearGradient id="SVGID_5_" gradientUnits="userSpaceOnUse" x1="35.6233" y1="53.5417" x2="38.5996" y2="47.4394">
				<stop  offset="0" style="stop-color:#D59929"/>
				<stop  offset="1" style="stop-color:#F9C313"/>
			</linearGradient>
			<polygon class="st5" points="49.99,52.99 40.69,56.01 25.65,45.09 			"/>
			<linearGradient id="SVGID_6_" gradientUnits="userSpaceOnUse" x1="25.6508" y1="49.0395" x2="49.9874" y2="49.0395">
				<stop  offset="0" style="stop-color:#FFC907"/>
				<stop  offset="0.3697" style="stop-color:#FEE89B"/>
				<stop  offset="0.3939" style="stop-color:#FEE58D"/>
				<stop  offset="0.7636" style="stop-color:#FFC907"/>
				<stop  offset="1" style="stop-color:#DDA027"/>
			</linearGradient>
			<polygon class="st6" points="49.99,52.99 44.24,45.09 25.65,45.09 			"/>
			<linearGradient id="SVGID_7_" gradientUnits="userSpaceOnUse" x1="34.9466" y1="63.3447" x2="49.988" y2="63.3447">
				<stop  offset="0" style="stop-color:#FFC907"/>
				<stop  offset="0.5879" style="stop-color:#BC872C"/>
				<stop  offset="1" style="stop-color:#F5B11A"/>
			</linearGradient>
			<polygon class="st7" points="49.99,52.99 49.99,62.77 34.95,73.7 			"/>
			<linearGradient id="SVGID_8_" gradientUnits="userSpaceOnUse" x1="34.9466" y1="63.3447" x2="49.9874" y2="63.3447">
				<stop  offset="0.1152" style="stop-color:#FFC907"/>
				<stop  offset="0.4364" style="stop-color:#FEE89B"/>
				<stop  offset="1" style="stop-color:#FFC907"/>
			</linearGradient>
			<polygon class="st8" points="49.99,52.99 40.69,56.01 34.95,73.7 			"/>
			<linearGradient id="SVGID_9_" gradientUnits="userSpaceOnUse" x1="54.933" y1="69.4107" x2="60.4159" y2="56.4939">
				<stop  offset="0" style="stop-color:#D59929"/>
				<stop  offset="1" style="stop-color:#F9C313"/>
			</linearGradient>
			<polygon class="st9" points="49.99,52.99 59.28,56.01 65.03,73.7 			"/>
			<linearGradient id="SVGID_10_" gradientUnits="userSpaceOnUse" x1="49.9868" y1="63.3447" x2="65.0283" y2="63.3447">
				<stop  offset="0" style="stop-color:#DDA027"/>
				<stop  offset="0.2909" style="stop-color:#FFC907"/>
				<stop  offset="1" style="stop-color:#FFF0B6"/>
			</linearGradient>
			<polygon class="st10" points="49.99,52.99 49.99,62.77 65.03,73.7 			"/>
			<linearGradient id="SVGID_11_" gradientUnits="userSpaceOnUse" x1="49.9874" y1="49.0395" x2="74.3247" y2="49.0395">
				<stop  offset="0.1152" style="stop-color:#FFC907"/>
				<stop  offset="0.4364" style="stop-color:#FEE89B"/>
				<stop  offset="1" style="stop-color:#FFC907"/>
			</linearGradient>
			<polygon class="st11" points="49.99,52.99 55.73,45.09 74.32,45.09 			"/>
			<linearGradient id="SVGID_12_" gradientUnits="userSpaceOnUse" x1="57.4018" y1="57.2743" x2="66.9103" y2="40.8052">
				<stop  offset="0" style="stop-color:#DDA027"/>
				<stop  offset="0.6606" style="stop-color:#F9C313"/>
				<stop  offset="1" style="stop-color:#F9C313"/>
			</linearGradient>
			<polygon class="st12" points="49.99,52.99 59.28,56.01 74.32,45.09 			"/>
		</g>
		<g>
			<polygon class="st13" points="49.99,52.99 50.11,52.83 49.99,27.4 49.87,52.83 			"/>
			<polygon class="st13" points="49.99,52.99 50.18,53.06 74.33,45.09 50.11,52.83 			"/>
			<polygon class="st13" points="49.99,52.99 49.99,53.2 65.03,73.7 50.18,53.06 			"/>
			<polygon class="st13" points="49.99,52.99 49.79,53.06 34.95,73.7 49.99,53.2 			"/>
			<polygon class="st13" points="49.99,52.99 49.87,52.83 25.65,45.09 49.79,53.06 			"/>
		</g>
	</g>
</g>
</svg>
