<?xml version="1.0" encoding="utf-8"?>
<!-- Generator: Adobe Illustrator 23.0.0, SVG Export Plug-In . SVG Version: 6.00 Build 0)  -->
<svg version="1.1" id="레이어_1" xmlns="http://www.w3.org/2000/svg" xmlns:xlink="http://www.w3.org/1999/xlink" x="0px"
	 y="0px" viewBox="0 0 99.98 112.42" style="enable-background:new 0 0 99.98 112.42;" xml:space="preserve">
<style type="text/css">
	.st0{fill:#FFFFFF;}
	.st1{fill:url(#SVGID_1_);}
	.st2{fill:url(#SVGID_2_);}
</style>
<g>
	<g>
		<path class="st0" d="M50.63,5.75c0,0-15.28,15.11-42.96,15.93c0,0-5.69,57.31,42.94,84.54c0,0,46.65-21.47,42.77-84.65
			C93.38,21.58,71.55,22.81,50.63,5.75z"/>
		<linearGradient id="SVGID_1_" gradientUnits="userSpaceOnUse" x1="11.5545" y1="56.0253" x2="89.801" y2="56.0253">
			<stop  offset="0" style="stop-color:#E5E2DF"/>
			<stop  offset="0" style="stop-color:#D6D1CD"/>
			<stop  offset="0" style="stop-color:#CCC7C2"/>
			<stop  offset="0.0679" style="stop-color:#BDB8B4"/>
			<stop  offset="0.1461" style="stop-color:#A7A3A0"/>
			<stop  offset="0.5225" style="stop-color:#E0E1E2"/>
			<stop  offset="0.6579" style="stop-color:#CCCAC9"/>
			<stop  offset="0.8764" style="stop-color:#A7A3A0"/>
			<stop  offset="1" style="stop-color:#D1D3D4"/>
			<stop  offset="1" style="stop-color:#A7A9AC"/>
		</linearGradient>
		<path class="st1" d="M50.76,10.4c0,0-13.88,13.73-39.02,14.47c0,0-5.16,52.05,39,76.78c0,0,42.37-19.5,38.85-76.89
			C89.59,24.77,69.77,25.89,50.76,10.4z"/>
		<linearGradient id="SVGID_2_" gradientUnits="userSpaceOnUse" x1="3.9986" y1="56.2079" x2="97.5437" y2="56.2079">
			<stop  offset="0" style="stop-color:#E5E2DF"/>
			<stop  offset="0" style="stop-color:#D6D1CD"/>
			<stop  offset="0" style="stop-color:#CCC7C2"/>
			<stop  offset="0.0679" style="stop-color:#BDB8B4"/>
			<stop  offset="0.1461" style="stop-color:#A7A3A0"/>
			<stop  offset="0.5225" style="stop-color:#E0E1E2"/>
			<stop  offset="0.6579" style="stop-color:#CCCAC9"/>
			<stop  offset="0.8764" style="stop-color:#A7A3A0"/>
			<stop  offset="1" style="stop-color:#D1D3D4"/>
			<stop  offset="1" style="stop-color:#A7A9AC"/>
		</linearGradient>
		<path class="st2" d="M92.53,22.67c3.79,61.88-41.89,82.91-41.89,82.91C3.01,78.91,8.57,22.78,8.57,22.78
			C35.69,21.98,50.65,7.18,50.65,7.18C71.15,23.88,92.53,22.67,92.53,22.67z M50.87,1.66c0,0-16.59,16.41-46.65,17.3
			c0,0-6.17,62.23,46.63,91.8c0,0,50.65-23.31,46.45-91.92C97.3,18.84,73.6,20.18,50.87,1.66z"/>
	</g>
	<g>
		<path class="st0" d="M34.15,51.03l-3.6-5.85l10.08-6.88h6.75v33.75h-8.55V47.88L34.15,51.03z"/>
		<path class="st0" d="M62,38.3c2.43,0,4.39,0.6,5.87,1.8c1.49,1.2,2.57,3.03,3.26,5.49c0.66,2.43,0.99,5.63,0.99,9.58
			s-0.35,7.16-1.03,9.61c-0.69,2.45-1.76,4.27-3.2,5.47c-1.47,1.2-3.44,1.8-5.9,1.8c-2.43,0-4.38-0.6-5.85-1.8
			c-1.47-1.2-2.55-3.03-3.24-5.49c-0.69-2.52-1.04-5.71-1.04-9.58c0-3.96,0.34-7.16,1.04-9.61c0.69-2.45,1.75-4.27,3.19-5.47
			C57.58,38.9,59.54,38.3,62,38.3z M62,65.3c0.75,0,1.23-0.76,1.44-2.29c0.24-1.59,0.36-4.2,0.36-7.83s-0.12-6.25-0.36-7.88
			c-0.24-1.5-0.72-2.25-1.44-2.25c-0.72,0-1.2,0.75-1.44,2.25c-0.24,1.62-0.36,4.25-0.36,7.88s0.12,6.24,0.36,7.83
			C60.8,64.53,61.28,65.3,62,65.3z"/>
	</g>
</g>
</svg>
