<?xml version="1.0" encoding="utf-8"?>
<!-- Generator: Adobe Illustrator 23.0.0, SVG Export Plug-In . SVG Version: 6.00 Build 0)  -->
<svg version="1.1" id="레이어_1" xmlns="http://www.w3.org/2000/svg" xmlns:xlink="http://www.w3.org/1999/xlink" x="0px"
	 y="0px" viewBox="0 0 96 113.82" style="enable-background:new 0 0 96 113.82;" xml:space="preserve">
<style type="text/css">
	.st0{fill:#FFFFFF;}
	.st1{fill:#6E50A1;}
	.st2{fill:#4E2B81;}
</style>
<g>
	<path class="st0" d="M48.64,6.58c0,0-15.35,15.18-43.16,16.01c0,0-5.71,57.57,43.14,84.92c0,0,46.86-21.57,42.97-85.03
		C91.59,22.48,69.66,23.72,48.64,6.58z"/>
	<path class="st1" d="M48.21,11.66c0,0-13.83,13.68-38.88,14.42c0,0-5.15,51.86,38.86,76.51c0,0,42.21-19.43,38.71-76.61
		C86.9,25.98,67.15,27.1,48.21,11.66z"/>
	<path class="st2" d="M86.9,25.98L22.77,79.15c0,0,8.68,14.17,25.14,23.46C47.9,102.61,89.64,83.87,86.9,25.98z"/>
	<path class="st1" d="M89.82,23.9c3.78,61.65-41.74,82.61-41.74,82.61C0.62,79.93,6.17,24,6.17,24C33.19,23.2,48.1,8.45,48.1,8.45
		C68.52,25.1,89.82,23.9,89.82,23.9z M48.31,2.96c0,0-16.53,16.35-46.48,17.24c0,0-6.15,62,46.46,91.46c0,0,50.47-23.23,46.28-91.58
		C94.57,20.08,70.96,21.41,48.31,2.96z"/>
	<g>
		<path class="st0" d="M47.31,71.8v-7.34H35.08v-7.34l9.79-22.02h11.74v22.02h3.67v7.34h-3.67v7.34H47.31z M43.89,57.12h3.92V45.38
			L43.89,57.12z"/>
	</g>
</g>
</svg>
