<?xml version="1.0" encoding="utf-8"?>
<!-- Generator: Adobe Illustrator 23.0.0, SVG Export Plug-In . SVG Version: 6.00 Build 0)  -->
<svg version="1.1" id="레이어_1" xmlns="http://www.w3.org/2000/svg" xmlns:xlink="http://www.w3.org/1999/xlink" x="0px"
	 y="0px" viewBox="0 0 99.98 112.42" style="enable-background:new 0 0 99.98 112.42;" xml:space="preserve">
<style type="text/css">
	.st0{fill:#FFFFFF;}
	.st1{fill:#A01D21;}
	.st2{fill:#8E191C;}
</style>
<g>
	<g>
		<path class="st0" d="M50.1,5.75c0,0-15.35,15.18-43.16,16.01c0,0-5.71,57.57,43.14,84.92c0,0,46.86-21.57,42.97-85.03
			C93.05,21.65,71.12,22.89,50.1,5.75z"/>
		<path class="st1" d="M49.98,11.08c0,0-13.83,13.68-38.88,14.42c0,0-5.15,51.86,38.86,76.51c0,0,42.21-19.43,38.71-76.61
			C88.67,25.4,68.92,26.52,49.98,11.08z"/>
		<path class="st2" d="M88.67,25.4L24.54,78.57c0,0,8.68,14.17,25.14,23.46C49.67,102.03,91.41,83.29,88.67,25.4z"/>
		<path class="st1" d="M91.59,23.32c3.78,61.65-41.74,82.61-41.74,82.61C2.4,79.35,7.94,23.43,7.94,23.43
			c27.01-0.8,41.92-15.55,41.92-15.55C70.29,24.52,91.59,23.32,91.59,23.32z M50.09,2.38c0,0-16.53,16.35-46.48,17.24
			c0,0-6.15,62,46.46,91.46c0,0,50.47-23.23,46.28-91.58C96.34,19.5,72.73,20.83,50.09,2.38z"/>
	</g>
	<g>
		<path class="st0" d="M62.65,35.65v4.5l-8.5,33h-9.4l7.75-30H40.65v-7.5H62.65z"/>
	</g>
</g>
</svg>
