<?xml version="1.0" encoding="utf-8"?>
<!-- Generator: Adobe Illustrator 23.0.0, SVG Export Plug-In . SVG Version: 6.00 Build 0)  -->
<svg version="1.1" id="레이어_1" xmlns="http://www.w3.org/2000/svg" xmlns:xlink="http://www.w3.org/1999/xlink" x="0px"
	 y="0px" viewBox="0 0 99.98 112.42" style="enable-background:new 0 0 99.98 112.42;" xml:space="preserve">
<style type="text/css">
	.st0{fill:#FFFFFF;}
	.st1{fill:#374A9F;}
	.st2{fill:#283891;}
</style>
<g>
	<g>
		<path class="st0" d="M50.02,5.68c0,0-15.35,15.18-43.16,16.01c0,0-5.71,57.57,43.14,84.92c0,0,46.86-21.57,42.97-85.03
			C92.97,21.57,71.05,22.81,50.02,5.68z"/>
		<path class="st1" d="M50.36,10.77c0,0-13.83,13.68-38.88,14.42c0,0-5.15,51.86,38.86,76.51c0,0,42.21-19.43,38.71-76.61
			C89.05,25.09,69.3,26.21,50.36,10.77z"/>
		<path class="st2" d="M89.05,25.09L24.92,78.26c0,0,8.68,14.17,25.14,23.46C50.06,101.72,91.8,82.98,89.05,25.09z"/>
		<path class="st1" d="M91.98,23.01c3.78,61.65-41.74,82.61-41.74,82.61C2.78,79.04,8.33,23.12,8.33,23.12
			c27.01-0.8,41.92-15.55,41.92-15.55C70.68,24.21,91.98,23.01,91.98,23.01z M50.47,2.07c0,0-16.53,16.35-46.48,17.24
			c0,0-6.15,62,46.46,91.46c0,0,50.47-23.23,46.28-91.58C96.73,19.19,73.11,20.52,50.47,2.07z"/>
	</g>
	<g>
		<path class="st0" d="M50.09,48.19l1.75-0.1c3.37,0,5.85,1.02,7.45,3.05s2.4,5.15,2.4,9.35c0,4.37-0.89,7.58-2.67,9.65
			c-1.78,2.07-4.56,3.1-8.33,3.1c-3.77,0-6.54-0.95-8.33-2.85c-1.78-1.9-2.67-4.87-2.67-8.9l9-1c0,1.7,0.17,2.9,0.5,3.6
			c0.37,0.77,0.87,1.15,1.5,1.15c1.33,0,2-1.57,2-4.7c0-1.63-0.4-2.84-1.2-3.63c-0.8-0.78-2.03-1.17-3.7-1.17l-0.95,0.05l-6.15,0.5
			l0.5-21.05h19.5v7.5h-10.5L50.09,48.19z"/>
	</g>
</g>
</svg>
