<?xml version="1.0" encoding="utf-8"?>
<!-- Generator: Adobe Illustrator 23.0.0, SVG Export Plug-In . SVG Version: 6.00 Build 0)  -->
<svg version="1.1" id="레이어_1" xmlns="http://www.w3.org/2000/svg" xmlns:xlink="http://www.w3.org/1999/xlink" x="0px"
	 y="0px" viewBox="0 0 96 113.82" style="enable-background:new 0 0 96 113.82;" xml:space="preserve">
<style type="text/css">
	.st0{fill:#FFFFFF;}
	.st1{fill:#0A763C;}
	.st2{fill:#285529;}
</style>
<g>
	<path class="st0" d="M47.74,6.68c0,0-15.35,15.18-43.16,16.01c0,0-5.71,57.57,43.14,84.92c0,0,46.86-21.57,42.97-85.03
		C90.69,22.58,68.77,23.82,47.74,6.68z"/>
	<path class="st1" d="M47.15,11.26c0,0-13.83,13.68-38.88,14.42c0,0-5.15,51.86,38.86,76.51c0,0,42.21-19.43,38.71-76.61
		C85.85,25.58,66.09,26.69,47.15,11.26z"/>
	<path class="st2" d="M85.85,25.58L21.71,78.74c0,0,8.68,14.17,25.14,23.46C46.85,102.2,88.59,83.46,85.85,25.58z"/>
	<path class="st1" d="M88.77,23.49c3.78,61.65-41.74,82.61-41.74,82.61C-0.43,79.52,5.12,23.6,5.12,23.6
		C32.13,22.8,47.05,8.05,47.05,8.05C67.47,24.69,88.77,23.49,88.77,23.49z M47.26,2.55c0,0-16.53,16.35-46.48,17.24
		c0,0-6.15,62,46.46,91.46c0,0,50.47-23.23,46.28-91.58C93.52,19.67,69.91,21.01,47.26,2.55z"/>
	<g>
		<path class="st0" d="M57.5,56.58c0.62,1.48,0.93,3.38,0.93,5.7c0,3.49-0.96,6.2-2.89,8.12c-1.93,1.92-4.71,2.89-8.37,2.89
			c-7.34,0-11.01-4-11.01-11.99l8.81-0.73c0,1.79,0.16,3.14,0.49,4.04c0.33,0.9,0.9,1.35,1.71,1.35s1.39-0.33,1.71-1
			c0.33-0.67,0.49-1.7,0.49-3.11c0-1.53-0.48-2.67-1.44-3.4c-0.96-0.73-2.39-1.07-4.28-1v-6.95c1.83,0.07,3.21-0.26,4.13-0.98
			c0.93-0.72,1.39-1.78,1.39-3.18c0-1.27-0.15-2.19-0.44-2.76c-0.29-0.57-0.82-0.86-1.57-0.86c-0.72,0-1.22,0.39-1.52,1.17
			c-0.29,0.78-0.44,2.02-0.44,3.72l-8.56-0.39c0-3.75,0.92-6.62,2.76-8.61c1.84-1.99,4.43-2.98,7.76-2.98
			c3.56,0,6.25,0.87,8.07,2.62c1.83,1.75,2.74,4.3,2.74,7.66c0,3.92-1.08,6.53-3.23,7.83C55.96,54.14,56.88,55.09,57.5,56.58z"/>
	</g>
</g>
</svg>
