<?xml version="1.0" standalone="no"?>
<!DOCTYPE svg PUBLIC "-//W3C//DTD SVG 20010904//EN"
 "http://www.w3.org/TR/2001/REC-SVG-20010904/DTD/svg10.dtd">
<svg version="1.0" xmlns="http://www.w3.org/2000/svg"
 width="421.000000pt" height="421.000000pt" viewBox="0 0 421.000000 421.000000"
 preserveAspectRatio="xMidYMid meet">
<metadata>
Created by potrace 1.14, written by Peter Selinger 2001-2017
</metadata>
<g transform="translate(0.000000,421.000000) scale(0.100000,-0.100000)"
fill="#000000" stroke="none">
<path d="M1990 3663 c-300 -31 -626 -192 -770 -381 -14 -18 -35 -45 -47 -60
-13 -15 -23 -34 -23 -43 0 -8 -4 -19 -9 -25 -4 -5 -16 -34 -25 -64 -9 -30 -30
-82 -46 -116 -16 -33 -34 -91 -39 -129 -6 -37 -14 -71 -19 -74 -5 -3 -18 -24
-28 -46 -17 -35 -19 -63 -18 -220 1 -233 11 -412 29 -545 2 -19 7 -77 11 -129
6 -80 5 -93 -8 -89 -21 9 -75 -17 -88 -43 -9 -16 -11 -68 -6 -193 10 -241 14
-309 20 -406 3 -47 9 -150 12 -230 3 -80 6 -147 7 -150 1 -5 -33 -61 -43 -70
-29 -26 -124 -194 -135 -240 -2 -8 -9 -31 -14 -50 -22 -70 -28 -67 147 -73
198 -7 2207 -7 2403 0 159 5 151 1 134 68 -11 44 -76 185 -85 185 -4 0 -10 10
-14 23 -3 12 -13 31 -23 42 -43 48 -46 66 -39 232 11 242 14 320 20 418 12
182 20 361 19 399 -2 51 -34 84 -86 88 l-39 2 7 71 c3 38 11 88 16 110 6 22
13 49 15 60 7 29 16 293 18 495 1 170 0 178 -30 275 -18 55 -32 115 -33 134
-1 18 -11 60 -22 93 -19 59 -85 198 -98 208 -3 3 -12 17 -20 32 -16 31 -133
154 -175 183 -15 11 -33 25 -40 30 -22 20 -96 65 -106 65 -5 0 -10 4 -10 9 0
18 -211 108 -295 126 -11 3 -31 7 -45 10 -14 3 -36 8 -50 11 -30 7 -280 12
-330 7z"/>
</g>
</svg>
